<svg xmlns="http://www.w3.org/2000/svg" width="22" height="20" viewBox="0 0 22 20" fill="none"><path d="M4.25 8.5C4.05109 8.5 3.86032 8.42098 3.71967 8.28033C3.57902 8.13968 3.5 7.94891 3.5 7.75V3.25C3.5 2.45435 3.81607 1.69129 4.37868 1.12868C4.94129 0.56607 5.70435 0.25 6.5 0.25C7.29565 0.25 8.05871 0.56607 8.62132 1.12868C9.18393 1.69129 9.5 2.45435 9.5 3.25C9.5 3.44891 9.42098 3.63968 9.28033 3.78033C9.13968 3.92098 8.94891 4 8.75 4C8.55109 4 8.36032 3.92098 8.21967 3.78033C8.07902 3.63968 8 3.44891 8 3.25C8 2.85218 7.84196 2.47064 7.56066 2.18934C7.27936 1.90804 6.89782 1.75 6.5 1.75C6.10218 1.75 5.72064 1.90804 5.43934 2.18934C5.15804 2.47064 5 2.85218 5 3.25V7.75C5 7.94891 4.92098 8.13968 4.78033 8.28033C4.63968 8.42098 4.44891 8.5 4.25 8.5Z" fill="#3A7658"></path><path d="M21.5 9.25001C21.5 8.65328 21.263 8.08098 20.841 7.65902C20.419 7.23707 19.8467 7.00001 19.25 7.00001H2.75C2.295 6.99836 1.85026 7.1352 1.47489 7.39236C1.09952 7.64952 0.811291 8.01481 0.648498 8.4397C0.485705 8.86459 0.45606 9.32895 0.563501 9.77109C0.670941 10.2132 0.910381 10.6122 1.25 10.915V13C1.25241 14.1293 1.61841 15.2278 2.29381 16.1328C2.96921 17.0378 3.91811 17.7013 5 18.025V19C5 19.1989 5.07902 19.3897 5.21967 19.5303C5.36033 19.671 5.55109 19.75 5.75 19.75C5.94892 19.75 6.13968 19.671 6.28033 19.5303C6.42099 19.3897 6.5 19.1989 6.5 19V18.25H15.5V19C15.5 19.1989 15.579 19.3897 15.7197 19.5303C15.8603 19.671 16.0511 19.75 16.25 19.75C16.4489 19.75 16.6397 19.671 16.7803 19.5303C16.921 19.3897 17 19.1989 17 19V18.025C18.0819 17.7013 19.0308 17.0378 19.7062 16.1328C20.3816 15.2278 20.7476 14.1293 20.75 13V10.915C20.985 10.7058 21.1733 10.4493 21.3025 10.1625C21.4317 9.87557 21.499 9.56466 21.5 9.25001ZM2.75 8.50001H19.25C19.4489 8.50001 19.6397 8.57903 19.7803 8.71968C19.921 8.86034 20 9.0511 20 9.25001C20 9.44893 19.921 9.63969 19.7803 9.78034C19.6397 9.921 19.4489 10 19.25 10H2.75C2.55109 10 2.36033 9.921 2.21967 9.78034C2.07902 9.63969 2 9.44893 2 9.25001C2 9.0511 2.07902 8.86034 2.21967 8.71968C2.36033 8.57903 2.55109 8.50001 2.75 8.50001ZM19.25 13C19.2488 13.9942 18.8533 14.9473 18.1503 15.6504C17.4473 16.3534 16.4942 16.7488 15.5 16.75H6.5C5.50581 16.7488 4.55267 16.3534 3.84967 15.6504C3.14666 14.9473 2.75119 13.9942 2.75 13V11.5H19.25V13Z" fill="#3A7658"></path></svg>