<svg width="24" height="16" viewBox="0 0 24 16" fill="none" xmlns="http://www.w3.org/2000/svg">
                    <path d="M1 9H23C23.2652 9 23.5196 8.89464 23.7071 8.70711C23.8946 8.51957 24 8.26522 24 8C24 7.73478 23.8946 7.48043 23.7071 7.29289C23.5196 7.10536 23.2652 7 23 7H1C0.734784 7 0.480429 7.10536 0.292892 7.29289C0.105356 7.48043 0 7.73478 0 8C0 8.26522 0.105356 8.51957 0.292892 8.70711C0.480429 8.89464 0.734784 9 1 9Z" fill="#0A1510"></path>
                    <path d="M21.586 7.99992L15.293 1.70692C15.1109 1.51832 15.0101 1.26571 15.0124 1.00352C15.0146 0.741321 15.1198 0.490508 15.3052 0.3051C15.4906 0.119692 15.7414 0.0145233 16.0036 0.0122448C16.2658 0.00996641 16.5184 0.110761 16.707 0.292919L23.707 7.29292C23.8945 7.48045 23.9998 7.73475 23.9998 7.99992C23.9998 8.26508 23.8945 8.51939 23.707 8.70692L16.707 15.7069C16.5184 15.8891 16.2658 15.9899 16.0036 15.9876C15.7414 15.9853 15.4906 15.8801 15.3052 15.6947C15.1198 15.5093 15.0146 15.2585 15.0124 14.9963C15.0101 14.7341 15.1109 14.4815 15.293 14.2929L21.586 7.99992Z" fill="#0A1510"></path>
                </svg>