<svg xmlns="http://www.w3.org/2000/svg" width="20" height="20" viewBox="0 0 20 20" fill="none"><path d="M16.4278 6.92927C16.2383 6.92927 16.0566 6.854 15.9226 6.72004C15.7887 6.58607 15.7134 6.40437 15.7134 6.2149V4.07182C15.7134 3.50343 15.4876 2.95833 15.0857 2.55642C14.6838 2.15452 14.1387 1.92873 13.5703 1.92873H6.42667C5.85829 1.92873 5.31319 2.15452 4.91128 2.55642C4.50937 2.95833 4.28358 3.50343 4.28358 4.07182V6.2149C4.28358 6.40437 4.20832 6.58607 4.07435 6.72004C3.94038 6.854 3.75868 6.92927 3.56922 6.92927C3.37976 6.92927 3.19806 6.854 3.06409 6.72004C2.93012 6.58607 2.85486 6.40437 2.85486 6.2149V4.07182C2.85599 3.12486 3.23267 2.21701 3.90227 1.54741C4.57187 0.877814 5.47972 0.501134 6.42667 0.5H13.5703C14.5173 0.501134 15.4251 0.877814 16.0947 1.54741C16.7643 2.21701 17.141 3.12486 17.1421 4.07182V6.2149C17.1421 6.40437 17.0669 6.58607 16.9329 6.72004C16.7989 6.854 16.6172 6.92927 16.4278 6.92927Z" fill="#3A7658"></path><path d="M14.9989 19.0735H13.5701C13.1912 19.0735 12.8278 18.9229 12.5599 18.655C12.2919 18.3871 12.1414 18.0237 12.1414 17.6447H7.85523C7.85523 18.0237 7.7047 18.3871 7.43676 18.655C7.16882 18.9229 6.80542 19.0735 6.4265 19.0735H4.99777C4.61885 19.0735 4.25545 18.9229 3.98751 18.655C3.71957 18.3871 3.56905 18.0237 3.56905 17.6447V17.5226C3.15149 17.3743 2.79004 17.1005 2.53425 16.7386C2.27846 16.3768 2.14086 15.9447 2.14032 15.5016V13.05C1.36163 12.7101 0.729821 12.1035 0.358622 11.3392C-0.0125779 10.575 -0.0987867 9.70337 0.115513 8.88123C0.329813 8.05908 0.830547 7.34043 1.52758 6.85464C2.22461 6.36885 3.07216 6.14783 3.91765 6.23135C4.81335 6.34047 5.63737 6.77601 6.23204 7.45464C6.82672 8.13327 7.1503 9.00734 7.14086 9.90961V12.6442H12.8558V9.90961C12.8463 9.00734 13.1699 8.13327 13.7646 7.45464C14.3593 6.77601 15.1833 6.34047 16.079 6.23135C16.925 6.14669 17.7734 6.36708 18.4712 6.85277C19.1691 7.33847 19.6704 8.05751 19.8849 8.88025C20.0993 9.70298 20.0128 10.5753 19.6408 11.3398C19.2689 12.1044 18.636 12.7109 17.8563 13.05V15.5016C17.8558 15.9447 17.7182 16.3768 17.4624 16.7386C17.2066 17.1005 16.8451 17.3743 16.4276 17.5226V17.6447C16.4276 18.0237 16.2771 18.3871 16.0091 18.655C15.7412 18.9229 15.3778 19.0735 14.9989 19.0735ZM7.14086 16.216H12.8558C13.0452 16.216 13.2269 16.2913 13.3609 16.4252C13.4949 16.5592 13.5701 16.7409 13.5701 16.9304V17.6447H14.9989V16.9304C14.9989 16.7409 15.0741 16.5592 15.2081 16.4252C15.3421 16.2913 15.5238 16.216 15.7132 16.216C15.9027 16.216 16.0844 16.1407 16.2184 16.0068C16.3523 15.8728 16.4276 15.6911 16.4276 15.5016V12.5428C16.4277 12.3846 16.4804 12.231 16.5772 12.106C16.674 11.981 16.8096 11.8917 16.9626 11.852C17.4858 11.7184 17.939 11.3918 18.2313 10.9379C18.5236 10.4839 18.6333 9.93618 18.5384 9.40466C18.4436 8.87314 18.1511 8.3972 17.7198 8.0724C17.2885 7.74761 16.7503 7.59801 16.2133 7.65365C15.6707 7.72692 15.1742 7.99743 14.8184 8.41356C14.4626 8.82968 14.2725 9.36226 14.2845 9.90961V12.6442C14.2845 13.0231 14.134 13.3865 13.866 13.6545C13.5981 13.9224 13.2347 14.0729 12.8558 14.0729H7.14086C6.76194 14.0729 6.39854 13.9224 6.1306 13.6545C5.86266 13.3865 5.71214 13.0231 5.71214 12.6442V9.90961C5.72408 9.36226 5.53403 8.82968 5.17825 8.41356C4.82248 7.99743 4.32591 7.72692 3.78335 7.65365C3.24654 7.59864 2.70878 7.74865 2.27796 8.07359C1.84713 8.39852 1.5551 8.87434 1.46046 9.4056C1.36582 9.93686 1.47555 10.4843 1.76766 10.938C2.05977 11.3917 2.51263 11.7182 3.03542 11.852C3.18821 11.8919 3.32346 11.9814 3.42001 12.1064C3.51656 12.2314 3.56897 12.3848 3.56905 12.5428V15.5016C3.56905 15.6911 3.64431 15.8728 3.77828 16.0068C3.91225 16.1407 4.09395 16.216 4.28341 16.216C4.47287 16.216 4.65457 16.2913 4.78854 16.4252C4.92251 16.5592 4.99777 16.7409 4.99777 16.9304V17.6447H6.4265V16.9304C6.4265 16.7409 6.50176 16.5592 6.63573 16.4252C6.7697 16.2913 6.9514 16.216 7.14086 16.216Z" fill="#3A7658"></path></svg>