<svg xmlns="http://www.w3.org/2000/svg" width="30" height="30" fill="none"><path d="m1.005 20.332 6.957-3.479 6.957 3.479 6.956-3.479 6.957 3.479M1.005 24.713l6.957-3.48 6.957 3.48 6.956-3.48 6.957 3.48M1 29l3.806-1.903 1.742-.871 1.41-.704L14.914 29l6.955-3.479 6.957 3.48" stroke="#0A1510" stroke-width="2" stroke-linejoin="bevel"></path><path d="M14.915 6.216v14.117" fill="#0A1510"></path><path d="M14.915 6.216v14.117M14.892 6.643H9.246A5.643 5.643 0 0 1 3.603 1h5.643a5.646 5.646 0 0 1 5.646 5.643zM15.254 11.819h5.772a5.77 5.77 0 0 0 5.772-5.772h-5.772a5.772 5.772 0 0 0-5.772 5.772z" stroke="#0A1510" stroke-width="2" stroke-linejoin="bevel"></path></svg>