<svg xmlns="http://www.w3.org/2000/svg" width="20" height="21"><path d="M8.125 6.125H5.625C5.29348 6.125 4.97554 6.2567 4.74112 6.49112C4.5067 6.72554 4.375 7.04348 4.375 7.375V9.25C4.375 9.41576 4.44085 9.57473 4.55806 9.69194C4.67527 9.80915 4.83424 9.875 5 9.875H8.75C8.91576 9.875 9.07473 9.80915 9.19194 9.69194C9.30915 9.57473 9.375 9.41576 9.375 9.25V7.375C9.375 7.04348 9.2433 6.72554 9.00888 6.49112C8.77446 6.2567 8.45652 6.125 8.125 6.125ZM8.125 8.625H5.625V7.375H8.125V8.625Z"></path><path d="M14.375 6.125H11.875C11.5435 6.125 11.2255 6.2567 10.9911 6.49112C10.7567 6.72554 10.625 7.04348 10.625 7.375V9.25C10.625 9.41576 10.6908 9.57473 10.8081 9.69194C10.9253 9.80915 11.0842 9.875 11.25 9.875H15C15.1658 9.875 15.3247 9.80915 15.4419 9.69194C15.5592 9.57473 15.625 9.41576 15.625 9.25V7.375C15.625 7.04348 15.4933 6.72554 15.2589 6.49112C15.0245 6.2567 14.7065 6.125 14.375 6.125ZM14.375 8.625H11.875V7.375H14.375V8.625Z"></path><path d="M17.5 9.26377C17.5 9.25877 17.5 9.25502 17.5 9.25002V5.37502C17.4967 4.90833 17.3084 4.46201 16.9765 4.13394C16.6446 3.80588 16.1961 3.62286 15.7294 3.62502H4.27063C3.80393 3.62286 3.35543 3.80588 3.0235 4.13394C2.69157 4.46201 2.5033 4.90833 2.5 5.37502V9.25002V9.26377C2.11299 9.55275 1.79856 9.92786 1.5816 10.3594C1.36465 10.7909 1.25112 11.267 1.25 11.75V14.875C1.25 15.2065 1.3817 15.5245 1.61612 15.7589C1.85054 15.9933 2.16848 16.125 2.5 16.125H3.125V16.75C3.125 16.9158 3.19085 17.0748 3.30806 17.192C3.42527 17.3092 3.58424 17.375 3.75 17.375C3.91576 17.375 4.07473 17.3092 4.19194 17.192C4.30915 17.0748 4.375 16.9158 4.375 16.75V16.125H15.625V16.75C15.625 16.9158 15.6908 17.0748 15.8081 17.192C15.9253 17.3092 16.0842 17.375 16.25 17.375C16.4158 17.375 16.5747 17.3092 16.6919 17.192C16.8092 17.0748 16.875 16.9158 16.875 16.75V16.125H17.5C17.8315 16.125 18.1495 15.9933 18.3839 15.7589C18.6183 15.5245 18.75 15.2065 18.75 14.875V11.75C18.7489 11.267 18.6354 10.7909 18.4184 10.3594C18.2014 9.92786 17.887 9.55275 17.5 9.26377ZM3.75 5.37502C3.75295 5.23975 3.80941 5.11116 3.907 5.01744C4.00458 4.92372 4.13534 4.87251 4.27063 4.87502H15.7294C15.8647 4.87251 15.9954 4.92372 16.093 5.01744C16.1906 5.11116 16.247 5.23975 16.25 5.37502V8.68752C16.0443 8.64575 15.8349 8.62481 15.625 8.62502H4.375C4.1651 8.62481 3.95571 8.64575 3.75 8.68752V5.37502ZM2.5 11.75C2.5 11.2527 2.69754 10.7758 3.04917 10.4242C3.40081 10.0726 3.87772 9.87502 4.375 9.87502H15.625C16.1223 9.87502 16.5992 10.0726 16.9508 10.4242C17.3025 10.7758 17.5 11.2527 17.5 11.75V12.375H2.5V11.75ZM2.5 14.875V13.625H17.5V14.875H2.5Z"></path></svg>