<svg xmlns="http://www.w3.org/2000/svg" width="22" height="16" viewBox="0 0 22 16" fill="none"><path d="M14.75 0.5C14.5511 0.5 14.3603 0.579018 14.2197 0.71967C14.079 0.860322 14 1.05109 14 1.25V5H11C10.8011 5 10.6103 5.07902 10.4697 5.21967C10.329 5.36032 10.25 5.55109 10.25 5.75C10.25 5.94891 10.329 6.13968 10.4697 6.28033C10.6103 6.42098 10.8011 6.5 11 6.5H14V9.5C14 9.69891 14.079 9.88968 14.2197 10.0303C14.3603 10.171 14.5511 10.25 14.75 10.25C14.9489 10.25 15.1397 10.171 15.2803 10.0303C15.421 9.88968 15.5 9.69891 15.5 9.5V1.25C15.5 1.05109 15.421 0.860322 15.2803 0.71967C15.1397 0.579018 14.9489 0.5 14.75 0.5Z" fill="#3A7658"></path><path d="M7.25 8.75C7.05109 8.75 6.86032 8.82902 6.71967 8.96967C6.57902 9.11032 6.5 9.30109 6.5 9.5V14.75C6.5 14.9489 6.57902 15.1397 6.71967 15.2803C6.86032 15.421 7.05109 15.5 7.25 15.5C7.44891 15.5 7.63968 15.421 7.78033 15.2803C7.92098 15.1397 8 14.9489 8 14.75V9.5C8 9.30109 7.92098 9.11032 7.78033 8.96967C7.63968 8.82902 7.44891 8.75 7.25 8.75Z" fill="#3A7658"></path><path d="M20 15.5H2C1.60218 15.5 1.22064 15.342 0.93934 15.0607C0.658035 14.7794 0.5 14.3978 0.5 14V2C0.5 1.60218 0.658035 1.22064 0.93934 0.93934C1.22064 0.658035 1.60218 0.5 2 0.5H20C20.3978 0.5 20.7794 0.658035 21.0607 0.93934C21.342 1.22064 21.5 1.60218 21.5 2V8.75C21.5 8.94891 21.421 9.13968 21.2803 9.28033C21.1397 9.42098 20.9489 9.5 20.75 9.5C20.5511 9.5 20.3603 9.42098 20.2197 9.28033C20.079 9.13968 20 8.94891 20 8.75V2H2V14H20V13.25C20 13.0511 20.079 12.8603 20.2197 12.7197C20.3603 12.579 20.5511 12.5 20.75 12.5C20.9489 12.5 21.1397 12.579 21.2803 12.7197C21.421 12.8603 21.5 13.0511 21.5 13.25V14C21.5 14.3978 21.342 14.7794 21.0607 15.0607C20.7794 15.342 20.3978 15.5 20 15.5Z" fill="#3A7658"></path></svg>