<svg xmlns="http://www.w3.org/2000/svg" width="28" height="31" fill="none"><path d="M11.786 6.393A5.393 5.393 0 1 1 1 6.393a5.393 5.393 0 0 1 10.786 0zM11.786 17.67a5.393 5.393 0 1 1-10.785 0 5.393 5.393 0 0 1 10.785 0zM6.27 5.682V31M26.836 6.393a5.398 5.398 0 0 1-6.448 5.295 5.396 5.396 0 1 1 6.448-5.295z" stroke="#0A1510" stroke-width="2" stroke-linejoin="bevel"></path><path d="M26.836 17.67a5.399 5.399 0 0 1-6.448 5.295 5.396 5.396 0 1 1 6.448-5.296zM21.32 5.682V31" stroke="#0A1510" stroke-width="2" stroke-linejoin="bevel"></path></svg>