<svg xmlns="http://www.w3.org/2000/svg" width="14" height="15"><path d="M0.75002 14.3746C0.626426 14.3745 0.505614 14.3379 0.402858 14.2692C0.300102 14.2005 0.220015 14.1029 0.172721 13.9887C0.125427 13.8745 0.11305 13.7489 0.137155 13.6277C0.161259 13.5065 0.220764 13.3951 0.308145 13.3077L5.11564 8.49957C5.17371 8.4415 5.24265 8.39543 5.31852 8.36401C5.39439 8.33258 5.47571 8.31641 5.55783 8.31641C5.63995 8.31641 5.72127 8.33258 5.79714 8.36401C5.87301 8.39543 5.94195 8.4415 6.00002 8.49957C6.05809 8.55764 6.10415 8.62657 6.13558 8.70244C6.167 8.77831 6.18318 8.85963 6.18318 8.94175C6.18318 9.02388 6.167 9.10519 6.13558 9.18106C6.10415 9.25693 6.05809 9.32587 6.00002 9.38394L1.19189 14.1914C1.07471 14.3087 0.915766 14.3745 0.75002 14.3746Z"></path><path d="M8.44249 6.68237C8.3189 6.68234 8.19809 6.64567 8.09533 6.57699C7.99258 6.50832 7.91249 6.41071 7.86519 6.29653C7.8179 6.18234 7.80552 6.05669 7.82963 5.93547C7.85373 5.81425 7.91324 5.7029 8.00062 5.61549L12.8081 0.807993C12.8658 0.748299 12.9347 0.700685 13.011 0.667929C13.0872 0.635174 13.1693 0.617932 13.2522 0.617211C13.3352 0.61649 13.4175 0.632303 13.4943 0.663729C13.5712 0.695155 13.6409 0.741563 13.6996 0.800246C13.7583 0.858929 13.8047 0.928711 13.8361 1.00552C13.8676 1.08233 13.8834 1.16463 13.8827 1.24762C13.8819 1.33061 13.8647 1.41262 13.8319 1.48887C13.7992 1.56512 13.7516 1.63409 13.6919 1.69174L8.88437 6.49987C8.76708 6.61686 8.60815 6.6825 8.44249 6.68237Z"></path><path d="M13.2497 14.3746C13.084 14.3745 12.925 14.3087 12.8078 14.1914L7.99972 9.38394C7.94165 9.32587 7.89559 9.25693 7.86416 9.18106C7.83273 9.10519 7.81656 9.02388 7.81656 8.94175C7.81656 8.85963 7.83273 8.77831 7.86416 8.70244C7.89559 8.62657 7.94165 8.55764 7.99972 8.49957C8.05779 8.4415 8.12673 8.39543 8.2026 8.36401C8.27847 8.33258 8.35979 8.31641 8.44191 8.31641C8.52403 8.31641 8.60535 8.33258 8.68122 8.36401C8.75709 8.39543 8.82602 8.4415 8.88409 8.49957L13.6916 13.3071C13.7792 13.3944 13.8389 13.5058 13.8631 13.6272C13.8873 13.7485 13.875 13.8743 13.8277 13.9886C13.7804 14.1029 13.7002 14.2006 13.5973 14.2693C13.4944 14.338 13.3734 14.3747 13.2497 14.3746Z"></path><path d="M5.55779 6.68263C5.39204 6.6826 5.23309 6.61673 5.11591 6.49951L0.30841 1.69201C0.194561 1.57413 0.131565 1.41625 0.132989 1.25238C0.134413 1.08851 0.200143 0.931751 0.316024 0.815871C0.431904 0.699991 0.588661 0.63426 0.752534 0.632836C0.916407 0.631412 1.07428 0.694409 1.19216 0.808258L6.00028 5.61576C6.08767 5.70316 6.14717 5.81452 6.17127 5.93574C6.19538 6.05696 6.183 6.1826 6.13571 6.29679C6.08842 6.41098 6.00833 6.50858 5.90557 6.57726C5.80282 6.64594 5.68138 6.68261 5.55779 6.68263Z"></path><path d="M4.11563 13.1244H1.375V10.3838C1.375 10.218 1.30915 10.0591 1.19194 9.94185C1.07473 9.82464 0.91576 9.75879 0.75 9.75879C0.58424 9.75879 0.425269 9.82464 0.308058 9.94185C0.190848 10.0591 0.125 10.218 0.125 10.3838V13.7494C0.125 13.9152 0.190848 14.0741 0.308058 14.1914C0.425269 14.3086 0.58424 14.3744 0.75 14.3744H4.11563C4.28139 14.3744 4.44036 14.3086 4.55757 14.1914C4.67478 14.0741 4.74063 13.9152 4.74063 13.7494C4.74063 13.5837 4.67478 13.4247 4.55757 13.3075C4.44036 13.1903 4.28139 13.1244 4.11563 13.1244Z"></path><path d="M13.2504 0.625H9.88477C9.71901 0.625 9.56003 0.690848 9.44282 0.808058C9.32561 0.925269 9.25977 1.08424 9.25977 1.25C9.25977 1.41576 9.32561 1.57473 9.44282 1.69194C9.56003 1.80915 9.71901 1.875 9.88477 1.875H12.6254V4.61563C12.6254 4.78139 12.6912 4.94036 12.8084 5.05757C12.9257 5.17478 13.0846 5.24063 13.2504 5.24063C13.4162 5.24063 13.5751 5.17478 13.6923 5.05757C13.8095 4.94036 13.8754 4.78139 13.8754 4.61563V1.25C13.8754 1.08424 13.8095 0.925269 13.6923 0.808058C13.5751 0.690848 13.4162 0.625 13.2504 0.625Z"></path><path d="M13.2504 9.75879C13.0846 9.75879 12.9257 9.82464 12.8084 9.94185C12.6912 10.0591 12.6254 10.218 12.6254 10.3838V13.1244H9.88477C9.71901 13.1244 9.56003 13.1903 9.44282 13.3075C9.32561 13.4247 9.25977 13.5837 9.25977 13.7494C9.25977 13.9152 9.32561 14.0741 9.44282 14.1914C9.56003 14.3086 9.71901 14.3744 9.88477 14.3744H13.2504C13.4162 14.3744 13.5751 14.3086 13.6923 14.1914C13.8095 14.0741 13.8754 13.9152 13.8754 13.7494V10.3838C13.8754 10.218 13.8095 10.0591 13.6923 9.94185C13.5751 9.82464 13.4162 9.75879 13.2504 9.75879Z"></path><path d="M4.11563 0.625H0.75C0.58424 0.625 0.425269 0.690848 0.308058 0.808058C0.190848 0.925269 0.125 1.08424 0.125 1.25V4.61563C0.125 4.78139 0.190848 4.94036 0.308058 5.05757C0.425269 5.17478 0.58424 5.24063 0.75 5.24063C0.91576 5.24063 1.07473 5.17478 1.19194 5.05757C1.30915 4.94036 1.375 4.78139 1.375 4.61563V1.875H4.11563C4.28139 1.875 4.44036 1.80915 4.55757 1.69194C4.67478 1.57473 4.74063 1.41576 4.74063 1.25C4.74063 1.08424 4.67478 0.925269 4.55757 0.808058C4.44036 0.690848 4.28139 0.625 4.11563 0.625Z"></path></svg>