<svg width="24" height="16" viewBox="0 0 24 16" fill="none" xmlns="http://www.w3.org/2000/svg">
                    <path d="M23 9H1C0.734784 9 0.48043 8.89464 0.292893 8.70711C0.105357 8.51957 0 8.26522 0 8C0 7.73478 0.105357 7.48043 0.292893 7.29289C0.48043 7.10536 0.734784 7 1 7H23C23.2652 7 23.5196 7.10536 23.7071 7.29289C23.8946 7.48043 24 7.73478 24 8C24 8.26522 23.8946 8.51957 23.7071 8.70711C23.5196 8.89464 23.2652 9 23 9Z" fill="#0A1510"></path>
                    <path d="M2.41394 7.99992L8.70694 1.70692C8.8891 1.51832 8.98989 1.26571 8.98761 1.00352C8.98533 0.741321 8.88017 0.490508 8.69476 0.3051C8.50935 0.119692 8.25854 0.0145233 7.99634 0.0122448C7.73414 0.00996641 7.48154 0.110761 7.29294 0.292919L0.292939 7.29292C0.105468 7.48045 0.000152588 7.73475 0.000152588 7.99992C0.000152588 8.26508 0.105468 8.51939 0.292939 8.70692L7.29294 15.7069C7.48154 15.8891 7.73414 15.9899 7.99634 15.9876C8.25854 15.9853 8.50935 15.8801 8.69476 15.6947C8.88017 15.5093 8.98533 15.2585 8.98761 14.9963C8.98989 14.7341 8.8891 14.4815 8.70694 14.2929L2.41394 7.99992Z" fill="#0A1510"></path>
                </svg>