<svg xmlns="http://www.w3.org/2000/svg" width="22" height="21" viewBox="0 0 22 21" fill="none"><path d="M11 16.5C9.81331 16.5 8.65328 16.1481 7.66658 15.4888C6.67989 14.8295 5.91085 13.8925 5.45673 12.7961C5.0026 11.6997 4.88378 10.4933 5.11529 9.32946C5.3468 8.16557 5.91825 7.09648 6.75736 6.25736C7.59648 5.41825 8.66557 4.8468 9.82946 4.61529C10.9933 4.38378 12.1997 4.5026 13.2961 4.95673C14.3925 5.41085 15.3295 6.17989 15.9888 7.16658C16.6481 8.15328 17 9.31331 17 10.5C16.9982 12.0908 16.3655 13.6158 15.2407 14.7407C14.1158 15.8655 12.5908 16.4982 11 16.5ZM11 6C10.11 6 9.23996 6.26392 8.49994 6.75839C7.75992 7.25286 7.18314 7.95566 6.84254 8.77793C6.50195 9.60019 6.41284 10.505 6.58647 11.3779C6.7601 12.2508 7.18869 13.0526 7.81802 13.682C8.44736 14.3113 9.24918 14.7399 10.1221 14.9135C10.995 15.0872 11.8998 14.9981 12.7221 14.6575C13.5443 14.3169 14.2471 13.7401 14.7416 13.0001C15.2361 12.26 15.5 11.39 15.5 10.5C15.4988 9.30689 15.0243 8.16299 14.1807 7.31934C13.337 6.47568 12.1931 6.00119 11 6Z" fill="#3A7658"></path><path d="M11 0C10.8011 0 10.6103 0.0790176 10.4697 0.21967C10.329 0.360322 10.25 0.551088 10.25 0.75V2.25C10.25 2.44891 10.329 2.63968 10.4697 2.78033C10.6103 2.92098 10.8011 3 11 3C11.1989 3 11.3897 2.92098 11.5303 2.78033C11.671 2.63968 11.75 2.44891 11.75 2.25V0.75C11.75 0.551088 11.671 0.360322 11.5303 0.21967C11.3897 0.0790176 11.1989 0 11 0Z" fill="#3A7658"></path><path d="M4.63651 3.07477C4.49578 2.93404 4.30491 2.85498 4.10589 2.85498C3.90686 2.85498 3.71599 2.93404 3.57526 3.07477C3.43453 3.2155 3.35547 3.40637 3.35547 3.6054C3.35547 3.80442 3.43453 3.99529 3.57526 4.13602L4.63651 5.19652C4.77796 5.33314 4.96741 5.40874 5.16406 5.40703C5.36071 5.40532 5.54882 5.32644 5.68787 5.18739C5.82693 5.04833 5.90581 4.86022 5.90752 4.66357C5.90923 4.46693 5.83363 4.27747 5.69701 4.13602L4.63651 3.07477Z" fill="#3A7658"></path><path d="M2.75 9.75H1.25C1.05109 9.75 0.860322 9.82902 0.71967 9.96967C0.579018 10.1103 0.5 10.3011 0.5 10.5C0.5 10.6989 0.579018 10.8897 0.71967 11.0303C0.860322 11.171 1.05109 11.25 1.25 11.25H2.75C2.94891 11.25 3.13968 11.171 3.28033 11.0303C3.42098 10.8897 3.5 10.6989 3.5 10.5C3.5 10.3011 3.42098 10.1103 3.28033 9.96967C3.13968 9.82902 2.94891 9.75 2.75 9.75Z" fill="#3A7658"></path><path d="M4.63651 15.8034L3.57526 16.8639C3.43453 17.0046 3.35547 17.1955 3.35547 17.3945C3.35547 17.5936 3.43453 17.7844 3.57526 17.9252C3.71599 18.0659 3.90686 18.145 4.10589 18.145C4.30491 18.145 4.49578 18.0659 4.63651 17.9252L5.69701 16.8647C5.76864 16.7955 5.82578 16.7127 5.86509 16.6212C5.90439 16.5297 5.92508 16.4313 5.92595 16.3317C5.92681 16.2321 5.90784 16.1334 5.87013 16.0412C5.83242 15.949 5.77673 15.8653 5.70631 15.7949C5.63589 15.7244 5.55215 15.6688 5.45998 15.631C5.3678 15.5933 5.26904 15.5744 5.16946 15.5752C5.06988 15.5761 4.97146 15.5968 4.87996 15.6361C4.78845 15.6754 4.7057 15.7325 4.63651 15.8042V15.8034Z" fill="#3A7658"></path><path d="M11 18C10.8011 18 10.6103 18.079 10.4697 18.2197C10.329 18.3603 10.25 18.5511 10.25 18.75V20.25C10.25 20.4489 10.329 20.6397 10.4697 20.7803C10.6103 20.921 10.8011 21 11 21C11.1989 21 11.3897 20.921 11.5303 20.7803C11.671 20.6397 11.75 20.4489 11.75 20.25V18.75C11.75 18.5511 11.671 18.3603 11.5303 18.2197C11.3897 18.079 11.1989 18 11 18Z" fill="#3A7658"></path><path d="M17.3637 15.8032C17.2946 15.7316 17.2118 15.6744 17.1203 15.6351C17.0288 15.5958 16.9304 15.5751 16.8308 15.5742C16.7312 15.5734 16.6325 15.5924 16.5403 15.6301C16.4481 15.6678 16.3644 15.7235 16.294 15.7939C16.2235 15.8643 16.1678 15.948 16.1301 16.0402C16.0924 16.1324 16.0734 16.2312 16.0743 16.3307C16.0752 16.4303 16.0959 16.5287 16.1352 16.6202C16.1745 16.7117 16.2316 16.7945 16.3032 16.8637L17.3637 17.9249C17.5045 18.0657 17.6953 18.1447 17.8944 18.1447C18.0934 18.1447 18.2843 18.0657 18.425 17.9249C18.5657 17.7842 18.6448 17.5933 18.6448 17.3943C18.6448 17.1953 18.5657 17.0044 18.425 16.8637L17.3637 15.8032Z" fill="#3A7658"></path><path d="M20.75 9.75H19.25C19.0511 9.75 18.8603 9.82902 18.7197 9.96967C18.579 10.1103 18.5 10.3011 18.5 10.5C18.5 10.6989 18.579 10.8897 18.7197 11.0303C18.8603 11.171 19.0511 11.25 19.25 11.25H20.75C20.9489 11.25 21.1397 11.171 21.2803 11.0303C21.421 10.8897 21.5 10.6989 21.5 10.5C21.5 10.3011 21.421 10.1103 21.2803 9.96967C21.1397 9.82902 20.9489 9.75 20.75 9.75Z" fill="#3A7658"></path><path d="M16.8338 5.41627C17.0327 5.41623 17.2235 5.33718 17.3641 5.19652L18.4253 4.13602C18.495 4.06634 18.5503 3.98361 18.588 3.89257C18.6257 3.80152 18.6451 3.70394 18.6451 3.6054C18.6451 3.50685 18.6257 3.40927 18.588 3.31823C18.5503 3.22718 18.495 3.14446 18.4253 3.07477C18.3556 3.00509 18.2729 2.94981 18.1819 2.9121C18.0908 2.87439 17.9932 2.85498 17.8947 2.85498C17.7962 2.85498 17.6986 2.87439 17.6075 2.9121C17.5165 2.94981 17.4338 3.00509 17.3641 3.07477L16.3036 4.13602C16.1987 4.24091 16.1273 4.37453 16.0984 4.52C16.0695 4.66546 16.0843 4.81624 16.1411 4.95326C16.1978 5.09029 16.2939 5.20741 16.4172 5.28982C16.5405 5.37224 16.6855 5.41624 16.8338 5.41627Z" fill="#3A7658"></path></svg>