<svg xmlns="http://www.w3.org/2000/svg" width="22" height="22" viewBox="0 0 22 22" fill="none"><path d="M11 4.25C9.66498 4.25 8.35994 4.64588 7.2499 5.38758C6.13987 6.12928 5.27471 7.18349 4.76382 8.41689C4.25292 9.65029 4.11925 11.0075 4.3797 12.3169C4.64015 13.6262 5.28303 14.829 6.22703 15.773C7.17104 16.717 8.37377 17.3599 9.68314 17.6203C10.9925 17.8808 12.3497 17.7471 13.5831 17.2362C14.8165 16.7253 15.8707 15.8601 16.6124 14.7501C17.3541 13.6401 17.75 12.335 17.75 11C17.748 9.2104 17.0362 7.49466 15.7708 6.22922C14.5053 4.96378 12.7896 4.25199 11 4.25ZM11 16.25C9.96165 16.25 8.94662 15.9421 8.08326 15.3652C7.2199 14.7883 6.547 13.9684 6.14964 13.0091C5.75228 12.0498 5.64831 10.9942 5.85088 9.97578C6.05345 8.95738 6.55347 8.02192 7.28769 7.28769C8.02192 6.55346 8.95738 6.05345 9.97578 5.85088C10.9942 5.64831 12.0498 5.75227 13.0091 6.14963C13.9684 6.54699 14.7883 7.2199 15.3652 8.08326C15.9421 8.94661 16.25 9.96165 16.25 11C16.2484 12.3919 15.6948 13.7263 14.7106 14.7106C13.7263 15.6948 12.3919 16.2484 11 16.25Z" fill="#3A7658"></path><path d="M11 2.75C11.1989 2.75 11.3897 2.67098 11.5303 2.53033C11.671 2.38968 11.75 2.19891 11.75 2V1.25C11.75 1.05109 11.671 0.860322 11.5303 0.71967C11.3897 0.579018 11.1989 0.5 11 0.5C10.8011 0.5 10.6103 0.579018 10.4697 0.71967C10.329 0.860322 10.25 1.05109 10.25 1.25V2C10.25 2.19891 10.329 2.38968 10.4697 2.53033C10.6103 2.67098 10.8011 2.75 11 2.75Z" fill="#3A7658"></path><path d="M17.3638 3.57516L16.8335 4.10541C16.7619 4.17459 16.7047 4.25735 16.6654 4.34885C16.6261 4.44036 16.6054 4.53877 16.6046 4.63836C16.6037 4.73794 16.6227 4.8367 16.6604 4.92887C16.6981 5.02105 16.7538 5.10478 16.8242 5.1752C16.8946 5.24562 16.9784 5.30131 17.0705 5.33902C17.1627 5.37673 17.2615 5.39571 17.3611 5.39485C17.4606 5.39398 17.5591 5.37329 17.6506 5.33398C17.7421 5.29468 17.8248 5.23754 17.894 5.16591L18.4243 4.63566C18.4959 4.56647 18.553 4.48371 18.5923 4.39221C18.6316 4.30071 18.6523 4.20229 18.6532 4.10271C18.6541 4.00312 18.6351 3.90436 18.5974 3.81219C18.5597 3.72002 18.504 3.63628 18.4335 3.56586C18.3631 3.49544 18.2794 3.43975 18.1872 3.40204C18.095 3.36433 17.9963 3.34535 17.8967 3.34622C17.7971 3.34709 17.6987 3.36777 17.6072 3.40708C17.5157 3.44639 17.4329 3.50352 17.3638 3.57516Z" fill="#3A7658"></path><path d="M20.75 10.25H20C19.8011 10.25 19.6103 10.329 19.4697 10.4697C19.329 10.6103 19.25 10.8011 19.25 11C19.25 11.1989 19.329 11.3897 19.4697 11.5303C19.6103 11.671 19.8011 11.75 20 11.75H20.75C20.9489 11.75 21.1397 11.671 21.2803 11.5303C21.421 11.3897 21.5 11.1989 21.5 11C21.5 10.8011 21.421 10.6103 21.2803 10.4697C21.1397 10.329 20.9489 10.25 20.75 10.25Z" fill="#3A7658"></path><path d="M17.894 16.8336C17.7526 16.697 17.5631 16.6214 17.3665 16.6231C17.1698 16.6248 16.9817 16.7037 16.8426 16.8427C16.7036 16.9818 16.6247 17.1699 16.623 17.3665C16.6213 17.5632 16.6969 17.7526 16.8335 17.8941L17.3638 18.4243C17.4334 18.494 17.5161 18.5493 17.6071 18.587C17.6981 18.6248 17.7956 18.6442 17.8941 18.6442C17.9926 18.6443 18.0902 18.6249 18.1812 18.5872C18.2722 18.5496 18.3549 18.4943 18.4246 18.4247C18.4943 18.3551 18.5496 18.2724 18.5873 18.1814C18.6251 18.0904 18.6445 17.9929 18.6445 17.8943C18.6446 17.7958 18.6252 17.6983 18.5875 17.6073C18.5499 17.5162 18.4946 17.4335 18.425 17.3638L17.894 16.8336Z" fill="#3A7658"></path><path d="M11 19.25C10.8011 19.25 10.6103 19.329 10.4697 19.4697C10.329 19.6103 10.25 19.8011 10.25 20V20.75C10.25 20.9489 10.329 21.1397 10.4697 21.2803C10.6103 21.421 10.8011 21.5 11 21.5C11.1989 21.5 11.3897 21.421 11.5303 21.2803C11.671 21.1397 11.75 20.9489 11.75 20.75V20C11.75 19.8011 11.671 19.6103 11.5303 19.4697C11.3897 19.329 11.1989 19.25 11 19.25Z" fill="#3A7658"></path><path d="M4.10562 16.8333L3.57537 17.3636C3.50569 17.4332 3.4504 17.5159 3.41267 17.6069C3.37494 17.6979 3.3555 17.7954 3.35547 17.8939C3.35543 17.9924 3.3748 18.09 3.41247 18.181C3.45014 18.272 3.50536 18.3548 3.575 18.4244C3.64463 18.4941 3.72731 18.5494 3.81831 18.5871C3.9093 18.6249 4.00684 18.6443 4.10536 18.6443C4.20387 18.6444 4.30142 18.625 4.39245 18.5873C4.48347 18.5497 4.56619 18.4945 4.63587 18.4248L5.16612 17.8946C5.30274 17.7531 5.37833 17.5637 5.37663 17.367C5.37492 17.1704 5.29604 16.9823 5.15698 16.8432C5.01793 16.7041 4.82982 16.6253 4.63317 16.6236C4.43652 16.6219 4.24707 16.6967 4.10562 16.8333Z" fill="#3A7658"></path><path d="M2 10.25H1.25C1.05109 10.25 0.860322 10.329 0.71967 10.4697C0.579018 10.6103 0.5 10.8011 0.5 11C0.5 11.1989 0.579018 11.3897 0.71967 11.5303C0.860322 11.671 1.05109 11.75 1.25 11.75H2C2.19891 11.75 2.38968 11.671 2.53033 11.5303C2.67098 11.3897 2.75 11.1989 2.75 11C2.75 10.8011 2.67098 10.6103 2.53033 10.4697C2.38968 10.329 2.19891 10.25 2 10.25Z" fill="#3A7658"></path><path d="M4.10626 5.16627C4.24771 5.30289 4.43716 5.37849 4.63381 5.37678C4.83046 5.37507 5.01857 5.29619 5.15762 5.15714C5.29668 5.01808 5.37556 4.82997 5.37727 4.63332C5.37898 4.43668 5.30338 4.24722 5.16676 4.10577L4.63651 3.57477C4.49578 3.43404 4.30491 3.35498 4.10589 3.35498C3.90686 3.35498 3.71599 3.43404 3.57526 3.57477C3.43453 3.7155 3.35547 3.90637 3.35547 4.1054C3.35547 4.30442 3.43453 4.49529 3.57526 4.63602L4.10626 5.16627Z" fill="#3A7658"></path><path d="M13.25 10.2498C13.0511 10.2498 12.8603 10.3289 12.7197 10.4695C12.579 10.6102 12.5 10.8009 12.5 10.9998C12.5015 11.2653 12.4326 11.5264 12.3002 11.7565C12.1678 11.9866 11.9767 12.1774 11.7465 12.3095C11.5162 12.4416 11.255 12.5102 10.9896 12.5084C10.7242 12.5065 10.464 12.4343 10.2356 12.299C10.0072 12.1637 9.81877 11.9702 9.6896 11.7383C9.56043 11.5064 9.49511 11.2444 9.50031 10.979C9.50552 10.7136 9.58106 10.4543 9.71923 10.2277C9.85739 10.001 10.0532 9.81507 10.2867 9.68884C10.3158 9.81702 10.3791 9.93494 10.4698 10.0301C10.6104 10.1707 10.8011 10.2497 11 10.2497C11.1989 10.2497 11.3896 10.1707 11.5303 10.0301L12.2803 9.28009C12.4209 9.13944 12.4998 8.94871 12.4998 8.74984C12.4998 8.55097 12.4209 8.36024 12.2803 8.21959L11.5303 7.46959C11.3896 7.32899 11.1989 7.25 11 7.25C10.8011 7.25 10.6104 7.32899 10.4698 7.46959C10.3895 7.55182 10.3296 7.65168 10.2948 7.76121C10.26 7.87073 10.2514 7.98687 10.2695 8.10034C9.7256 8.23801 9.23129 8.52566 8.84288 8.93053C8.45447 9.3354 8.18757 9.84122 8.07259 10.3904C7.9576 10.9395 7.99915 11.5099 8.19251 12.0366C8.38586 12.5633 8.72325 13.0251 9.16623 13.3694C9.60922 13.7137 10.14 13.9267 10.6981 13.9841C11.2562 14.0414 11.8192 13.9409 12.323 13.694C12.8268 13.447 13.2511 13.0635 13.5476 12.5872C13.8441 12.1109 14.0008 11.5609 14 10.9998C14 10.8009 13.921 10.6102 13.7803 10.4695C13.6397 10.3289 13.4489 10.2498 13.25 10.2498Z" fill="#3A7658"></path></svg>