<svg xmlns="http://www.w3.org/2000/svg" width="18" height="22" viewBox="0 0 18 22" fill="none"><path d="M10.5 11H7.5C7.10218 11 6.72064 11.158 6.43934 11.4393C6.15804 11.7206 6 12.1022 6 12.5V16.25C6 16.4489 6.07902 16.6397 6.21967 16.7803C6.36032 16.921 6.55109 17 6.75 17H11.25C11.4489 17 11.6397 16.921 11.7803 16.7803C11.921 16.6397 12 16.4489 12 16.25V12.5C12 12.1022 11.842 11.7206 11.5607 11.4393C11.2794 11.158 10.8978 11 10.5 11ZM10.5 15.5H7.5V12.5H10.5V15.5Z" fill="#3A7658"></path><path d="M9 9.5C9.44501 9.5 9.88002 9.36804 10.25 9.12081C10.62 8.87357 10.9084 8.52217 11.0787 8.11104C11.249 7.69991 11.2936 7.24751 11.2068 6.81105C11.12 6.37459 10.9057 5.97368 10.591 5.65901C10.2763 5.34434 9.87541 5.13005 9.43895 5.04323C9.0025 4.95642 8.5501 5.00097 8.13896 5.17127C7.72783 5.34157 7.37643 5.62996 7.12919 5.99997C6.88196 6.36998 6.75 6.80499 6.75 7.25C6.75 7.84674 6.98705 8.41903 7.40901 8.84099C7.83097 9.26295 8.40326 9.5 9 9.5ZM9 6.5C9.14834 6.5 9.29334 6.54399 9.41668 6.6264C9.54001 6.70881 9.63614 6.82594 9.69291 6.96299C9.74968 7.10003 9.76453 7.25083 9.73559 7.39632C9.70665 7.5418 9.63522 7.67544 9.53033 7.78033C9.42544 7.88522 9.2918 7.95665 9.14632 7.98559C9.00083 8.01453 8.85003 7.99968 8.71299 7.94291C8.57594 7.88615 8.45881 7.79002 8.3764 7.66668C8.29399 7.54334 8.25 7.39834 8.25 7.25C8.25 7.05109 8.32902 6.86032 8.46967 6.71967C8.61032 6.57902 8.80109 6.5 9 6.5Z" fill="#3A7658"></path><path d="M16.965 6.66492L9.465 0.664922C9.33351 0.55823 9.16932 0.5 9 0.5C8.83066 0.5 8.66648 0.55823 8.535 0.664922L1.035 6.66492C0.956952 6.7251 0.891779 6.80032 0.843336 6.88614C0.794894 6.97197 0.764168 7.06664 0.752978 7.16455C0.741788 7.26246 0.750362 7.36162 0.778192 7.45616C0.806022 7.5507 0.852541 7.63869 0.914995 7.71492C0.98484 7.80331 1.0737 7.87483 1.17498 7.92417C1.27625 7.97351 1.38734 7.9994 1.5 7.99992C1.66958 8.00134 1.83423 7.94291 1.965 7.83492L3 7.00767V15.4999C3 15.8977 3.15803 16.2793 3.43934 16.5606C3.72064 16.8419 4.10217 16.9999 4.5 16.9999H8.25V20.7499C8.25 20.9488 8.32901 21.1396 8.46967 21.2803C8.61032 21.4209 8.80108 21.4999 9 21.4999C9.19891 21.4999 9.38967 21.4209 9.53033 21.2803C9.67098 21.1396 9.75 20.9488 9.75 20.7499V16.9999H13.5C13.8978 16.9999 14.2794 16.8419 14.5607 16.5606C14.842 16.2793 15 15.8977 15 15.4999V7.00767L16.035 7.83267C16.1654 7.94148 16.3301 8.00071 16.5 7.99992C16.6126 7.9994 16.7237 7.97351 16.825 7.92417C16.9263 7.87483 17.0152 7.80331 17.085 7.71492C17.1474 7.63869 17.194 7.5507 17.2218 7.45616C17.2496 7.36162 17.2582 7.26246 17.247 7.16455C17.2358 7.06664 17.2051 6.97197 17.1567 6.88614C17.1082 6.80032 17.043 6.7251 16.965 6.66492ZM13.5 15.4999H4.5V5.80767L9 2.20767L13.5 5.80767V15.4999Z" fill="#3A7658"></path></svg>