<svg xmlns="http://www.w3.org/2000/svg" width="20" height="21"><path d="M10.625 11.125C10.4592 11.125 10.3003 11.1908 10.1831 11.3081C10.0658 11.4253 10 11.5842 10 11.75V12.375C10 12.5408 10.0658 12.6997 10.1831 12.8169C10.3003 12.9342 10.4592 13 10.625 13C10.7908 13 10.9497 12.9342 11.0669 12.8169C11.1842 12.6997 11.25 12.5408 11.25 12.375V11.75C11.25 11.5842 11.1842 11.4253 11.0669 11.3081C10.9497 11.1908 10.7908 11.125 10.625 11.125Z"></path><path d="M13.125 11.75C12.9592 11.75 12.8003 11.8158 12.6831 11.9331C12.5658 12.0503 12.5 12.2092 12.5 12.375V13C12.5 13.1658 12.5658 13.3247 12.6831 13.4419C12.8003 13.5592 12.9592 13.625 13.125 13.625C13.2908 13.625 13.4497 13.5592 13.5669 13.4419C13.6842 13.3247 13.75 13.1658 13.75 13V12.375C13.75 12.2092 13.6842 12.0503 13.5669 11.9331C13.4497 11.8158 13.2908 11.75 13.125 11.75Z"></path><path d="M10.625 13.625C10.4592 13.625 10.3003 13.6908 10.1831 13.8081C10.0658 13.9253 10 14.0842 10 14.25V14.875C10 15.0408 10.0658 15.1997 10.1831 15.3169C10.3003 15.4342 10.4592 15.5 10.625 15.5C10.7908 15.5 10.9497 15.4342 11.0669 15.3169C11.1842 15.1997 11.25 15.0408 11.25 14.875V14.25C11.25 14.0842 11.1842 13.9253 11.0669 13.8081C10.9497 13.6908 10.7908 13.625 10.625 13.625Z"></path><path d="M13.125 14.25C12.9592 14.25 12.8003 14.3158 12.6831 14.4331C12.5658 14.5503 12.5 14.7092 12.5 14.875V15.5C12.5 15.6658 12.5658 15.8247 12.6831 15.9419C12.8003 16.0592 12.9592 16.125 13.125 16.125C13.2908 16.125 13.4497 16.0592 13.5669 15.9419C13.6842 15.8247 13.75 15.6658 13.75 15.5V14.875C13.75 14.7092 13.6842 14.5503 13.5669 14.4331C13.4497 14.3158 13.2908 14.25 13.125 14.25Z"></path><path d="M10.625 16.125C10.4592 16.125 10.3003 16.1908 10.1831 16.3081C10.0658 16.4253 10 16.5842 10 16.75V17.375C10 17.5408 10.0658 17.6997 10.1831 17.8169C10.3003 17.9342 10.4592 18 10.625 18C10.7908 18 10.9497 17.9342 11.0669 17.8169C11.1842 17.6997 11.25 17.5408 11.25 17.375V16.75C11.25 16.5842 11.1842 16.4253 11.0669 16.3081C10.9497 16.1908 10.7908 16.125 10.625 16.125Z"></path><path d="M13.125 16.75C12.9592 16.75 12.8003 16.8158 12.6831 16.9331C12.5658 17.0503 12.5 17.2092 12.5 17.375V18C12.5 18.1658 12.5658 18.3247 12.6831 18.4419C12.8003 18.5592 12.9592 18.625 13.125 18.625C13.2908 18.625 13.4497 18.5592 13.5669 18.4419C13.6842 18.3247 13.75 18.1658 13.75 18V17.375C13.75 17.2092 13.6842 17.0503 13.5669 16.9331C13.4497 16.8158 13.2908 16.75 13.125 16.75Z"></path><path d="M15.625 9.25V7.375C15.6239 6.4765 15.3003 5.60826 14.713 4.92827C14.1257 4.24829 13.3138 3.80178 12.425 3.67C12.2948 3.12428 11.9849 2.63821 11.5451 2.28996C11.1052 1.94171 10.561 1.75152 10 1.75H7.5C6.6715 1.75099 5.87722 2.08055 5.29139 2.66639C4.70555 3.25222 4.37599 4.0465 4.375 4.875V18.625C4.375 18.7908 4.44085 18.9497 4.55806 19.0669C4.67527 19.1842 4.83424 19.25 5 19.25C5.16576 19.25 5.32473 19.1842 5.44194 19.0669C5.55915 18.9497 5.625 18.7908 5.625 18.625V4.875C5.625 4.37772 5.82254 3.90081 6.17417 3.54917C6.52581 3.19754 7.00272 3 7.5 3H10C10.2333 3.00099 10.4617 3.06725 10.6593 3.19129C10.8569 3.31533 11.0158 3.49219 11.1181 3.70188C10.2732 3.87718 9.51444 4.33804 8.96935 5.00697C8.42426 5.6759 8.1261 6.5121 8.125 7.375V9.25C7.95924 9.25 7.80027 9.31585 7.68306 9.43306C7.56585 9.55027 7.5 9.70924 7.5 9.875C7.5 10.0408 7.56585 10.1997 7.68306 10.3169C7.80027 10.4342 7.95924 10.5 8.125 10.5H15.625C15.7908 10.5 15.9497 10.4342 16.0669 10.3169C16.1842 10.1997 16.25 10.0408 16.25 9.875C16.25 9.70924 16.1842 9.55027 16.0669 9.43306C15.9497 9.31585 15.7908 9.25 15.625 9.25ZM9.375 9.25V7.375C9.375 6.71196 9.63839 6.07607 10.1072 5.60723C10.5761 5.13839 11.212 4.875 11.875 4.875C12.538 4.875 13.1739 5.13839 13.6428 5.60723C14.1116 6.07607 14.375 6.71196 14.375 7.375V9.25H9.375Z"></path></svg>