<svg xmlns="http://www.w3.org/2000/svg" width="14" height="21" viewBox="0 0 14 21" fill="none"><path d="M11.5 0H2.5C1.90326 0 1.33097 0.237053 0.90901 0.65901C0.487053 1.08097 0.25 1.65326 0.25 2.25V19.5C0.25 19.8978 0.408035 20.2794 0.68934 20.5607C0.970644 20.842 1.35218 21 1.75 21H12.25C12.6478 21 13.0294 20.842 13.3107 20.5607C13.592 20.2794 13.75 19.8978 13.75 19.5V2.25C13.75 1.65326 13.5129 1.08097 13.091 0.65901C12.669 0.237053 12.0967 0 11.5 0ZM1.75 19.5V2.25C1.75 2.05109 1.82902 1.86032 1.96967 1.71967C2.11032 1.57902 2.30109 1.5 2.5 1.5H11.5C11.6989 1.5 11.8897 1.57902 12.0303 1.71967C12.171 1.86032 12.25 2.05109 12.25 2.25V19.5H1.75Z" fill="#3A7658"></path><path d="M9.25 9.75H4.75C4.55109 9.75 4.36032 9.82902 4.21967 9.96967C4.07902 10.1103 4 10.3011 4 10.5C4 10.6989 4.07902 10.8897 4.21967 11.0303C4.36032 11.171 4.55109 11.25 4.75 11.25H9.25C9.44891 11.25 9.63968 11.171 9.78033 11.0303C9.92098 10.8897 10 10.6989 10 10.5C10 10.3011 9.92098 10.1103 9.78033 9.96967C9.63968 9.82902 9.44891 9.75 9.25 9.75Z" fill="#3A7658"></path><path d="M9.25 6.75H4.75C4.55109 6.75 4.36032 6.82902 4.21967 6.96967C4.07902 7.11032 4 7.30109 4 7.5C4 7.69891 4.07902 7.88968 4.21967 8.03033C4.36032 8.17098 4.55109 8.25 4.75 8.25H9.25C9.44891 8.25 9.63968 8.17098 9.78033 8.03033C9.92098 7.88968 10 7.69891 10 7.5C10 7.30109 9.92098 7.11032 9.78033 6.96967C9.63968 6.82902 9.44891 6.75 9.25 6.75Z" fill="#3A7658"></path><path d="M9.25 3.75H4.75C4.55109 3.75 4.36032 3.82902 4.21967 3.96967C4.07902 4.11032 4 4.30109 4 4.5C4 4.69891 4.07902 4.88968 4.21967 5.03033C4.36032 5.17098 4.55109 5.25 4.75 5.25H9.25C9.44891 5.25 9.63968 5.17098 9.78033 5.03033C9.92098 4.88968 10 4.69891 10 4.5C10 4.30109 9.92098 4.11032 9.78033 3.96967C9.63968 3.82902 9.44891 3.75 9.25 3.75Z" fill="#3A7658"></path></svg>