<svg xmlns="http://www.w3.org/2000/svg" width="22" height="20" viewBox="0 0 22 20" fill="none"><path d="M21.2929 7.98188C21.2249 7.91066 21.1435 7.85355 21.0533 7.8138C20.9632 7.77405 20.8661 7.75244 20.7677 7.75021C20.6692 7.74798 20.5712 7.76518 20.4794 7.80081C20.3876 7.83644 20.3036 7.88982 20.2324 7.95788L19.8874 8.28788C19.6631 6.08605 18.6304 4.04559 16.9889 2.56098C15.3475 1.07636 13.2139 0.25302 11.0007 0.250132C9.09856 0.239739 7.24376 0.842783 5.71143 1.9698C4.17911 3.09682 3.0509 4.68777 2.49419 6.50663C2.43561 6.69679 2.45497 6.90243 2.54801 7.07832C2.64105 7.25421 2.80015 7.38593 2.99031 7.44451C3.18047 7.50309 3.38612 7.48373 3.562 7.39069C3.73789 7.29764 3.86961 7.13854 3.92819 6.94838C4.39107 5.43643 5.3292 4.11407 6.60329 3.17762C7.87738 2.24117 9.4195 1.74056 11.0007 1.75013C12.7692 1.75333 14.4786 2.38664 15.8224 3.53641C17.1661 4.68618 18.0561 6.27716 18.3327 8.02388L18.2937 7.98263C18.1564 7.83862 17.9676 7.75503 17.7687 7.75025C17.5698 7.74546 17.3772 7.81988 17.2332 7.95713C17.0892 8.09438 17.0056 8.28322 17.0008 8.4821C16.996 8.68098 17.0704 8.87362 17.2077 9.01763L18.6402 10.5176C18.7081 10.589 18.7895 10.6462 18.8796 10.6861C18.9696 10.726 19.0667 10.7478 19.1652 10.7501H19.1817C19.375 10.7504 19.5609 10.6759 19.7007 10.5424L21.2682 9.04238C21.3395 8.97438 21.3966 8.893 21.4365 8.8029C21.4763 8.7128 21.4979 8.61574 21.5002 8.51726C21.5025 8.41878 21.4854 8.32081 21.4498 8.22895C21.4143 8.13709 21.361 8.05313 21.2929 7.98188Z" fill="#3A7658"></path><path d="M19.0103 12.5562C18.8202 12.4977 18.6147 12.517 18.4389 12.61C18.2631 12.7029 18.1314 12.8619 18.0728 13.052C17.6099 14.5639 16.6718 15.8863 15.3977 16.8227C14.1236 17.7592 12.5815 18.2598 11.0003 18.2502C9.23182 18.247 7.52236 17.6137 6.17864 16.464C4.83493 15.3142 3.94492 13.7232 3.66831 11.9765L3.70731 12.0177C3.84456 12.1617 4.03339 12.2453 4.23227 12.2501C4.43116 12.2549 4.62379 12.1805 4.76781 12.0432C4.91182 11.906 4.99541 11.7171 5.00019 11.5183C5.00497 11.3194 4.93056 11.1267 4.79331 10.9827L3.36081 9.48273C3.22345 9.33893 3.03461 9.25558 2.83581 9.25098C2.73717 9.24735 2.63883 9.26383 2.54677 9.29942C2.45471 9.33501 2.37085 9.38895 2.30031 9.45798L0.732805 10.958C0.588992 11.0954 0.50567 11.2844 0.501169 11.4833C0.496668 11.6821 0.571357 11.8747 0.708806 12.0185C0.846254 12.1623 1.0352 12.2456 1.23408 12.2501C1.43297 12.2546 1.62549 12.1799 1.76931 12.0425L2.11431 11.7125C2.33866 13.9142 3.37127 15.9545 5.01255 17.4391C6.65382 18.9237 8.78721 19.7472 11.0003 19.7502C12.9024 19.7606 14.7572 19.1576 16.2896 18.0306C17.8219 16.9035 18.9501 15.3126 19.5068 13.4937C19.5358 13.3996 19.5459 13.3006 19.5367 13.2026C19.5274 13.1045 19.4989 13.0092 19.4528 12.9221C19.4067 12.8351 19.3439 12.7579 19.2679 12.6952C19.192 12.6324 19.1045 12.5852 19.0103 12.5562Z" fill="#3A7658"></path><path d="M11.0006 14.5C10.8779 14.5001 10.7571 14.4702 10.6487 14.4127C10.5404 14.3553 10.4477 14.2721 10.379 14.1706C10.3102 14.069 10.2674 13.9521 10.2543 13.8302C10.2412 13.7082 10.2582 13.5849 10.3038 13.471L11.3928 10.75H9.50058C9.37792 10.7501 9.25711 10.7202 9.14874 10.6627C9.04037 10.6053 8.94774 10.5221 8.87897 10.4206C8.8102 10.319 8.76739 10.2021 8.75429 10.0802C8.74119 9.9582 8.7582 9.8349 8.80383 9.72105L10.3038 5.97105C10.3778 5.78626 10.5222 5.63843 10.7052 5.56009C10.8882 5.48174 11.0948 5.4793 11.2796 5.5533C11.4644 5.62729 11.6122 5.77166 11.6905 5.95465C11.7689 6.13764 11.7713 6.34426 11.6973 6.52905L10.6083 9.25005H12.5006C12.6232 9.24995 12.744 9.27994 12.8524 9.33739C12.9608 9.39483 13.0534 9.47798 13.1222 9.57954C13.1909 9.6811 13.2338 9.79798 13.2469 9.91993C13.26 10.0419 13.243 10.1652 13.1973 10.279L11.6973 14.029C11.6416 14.1682 11.5454 14.2874 11.4212 14.3714C11.297 14.4553 11.1505 14.5002 11.0006 14.5Z" fill="#3A7658"></path></svg>