<svg xmlns="http://www.w3.org/2000/svg" width="54" height="80" viewBox="0 0 54 80" fill="none"><circle cx="26.9079" cy="26.9075" r="15.2727" fill="white"></circle><path d="M26.9091 0C12.0717 0 0 11.963 0 26.6667C0 31.0808 1.11362 35.4573 3.23066 39.3392L25.4376 79.1406C25.7332 79.6712 26.2965 80 26.9091 80C27.5216 80 28.085 79.6712 28.3806 79.1406L50.5957 39.3261C52.7046 35.4573 53.8182 31.0806 53.8182 26.6666C53.8182 11.963 41.7465 0 26.9091 0ZM26.9091 40C19.4904 40 13.4546 34.0186 13.4546 26.6667C13.4546 19.3148 19.4904 13.3334 26.9091 13.3334C34.3278 13.3334 40.3636 19.3148 40.3636 26.6667C40.3636 34.0186 34.3278 40 26.9091 40Z" fill="#3A7658"></path></svg>